:SAMPLES-PER-SECOND 30
:FRAME-RANGE 1-1770
:FULLY-SPECIFIED
:DEGREES
111
root  47.5821 34.4515 -28.4066 144.048 69.2105 133.939
RightUpLeg  -22.2163 -4.95135 -2.95041
RightLeg  85.4953 0.746217 10.4384
RightFoot  -6.08424 -0.730344 14.923
RightToes  -1.33073e-015 0 -3.6325e-017
Spine  11.0125 11.1774 4.94051
Spine1  9.76005 15.8136 -14.0917
HEad  2.61062 1.50837 -10.6119
LeftShoulder1  0.237911 2.54873 -25.5483
LeftArm  6.13946 11.2691 -40.9058
LeftForeArm  34.3561 -3.08605 -13.7501
LeftHand  -0.000499188 5.74032 7.42315
RightShoulder  3.35196 11.8654 15.4558
RightArm  69.8235 40.9824 100.928
RightForeArm  27.9899 35.8597 6.43438
RightHand  0.0294436 -5.64576 -18.7305
LeftUpLeg  -43.5681 -5.4502 -9.09756
LeftLeg  47.969 -2.07438 -2.0063
LeftFoot  -12.3345 0.0378128 -4.16369
LeftToes  1.09107e-011 -1.16422e-010 2.98337e-011
112
root  49.1041 34.6039 -28.4971 137.256 71.5759 128.055
RightUpLeg  -31.266 -6.16433 -5.30883
RightLeg  92.6596 -0.11995 5.15948
RightFoot  -8.72037 -0.274907 9.39962
RightToes  -1.33073e-015 0 -3.6325e-017
Spine  10.8088 9.67713 2.84694
Spine1  9.79985 13.8306 -12.9361
HEad  4.21621 4.60344 -10.4989
LeftShoulder1  0.713968 0.933421 -24.1148
LeftArm  4.73317 8.78301 -43.3423
LeftForeArm  40.0107 0.186793 -14.0959
LeftHand  -0.00960018 5.7952 4.75313
RightShoulder  3.36772 11.0933 16.8711
RightArm  71.6329 38.1371 97.7066
RightForeArm  21.342 29.4129 5.21165
RightHand  0.0660097 -5.80893 -20.9251
LeftUpLeg  -40.2018 -3.30574 -8.50222
LeftLeg  49.4224 -1.42661 -1.30392
LeftFoot  -15.9096 -0.106019 -5.04489
LeftToes  1.09107e-011 -1.16422e-010 2.98337e-011
113
root  50.7605 35.053 -28.4942 134.036 72.9538 125.985
RightUpLeg  -38.2395 -7.4796 -7.73349
RightLeg  93.1461 -0.145652 4.961
RightFoot  -11.4942 -0.0672926 8.14921
RightToes  -1.33073e-015 0 -3.6325e-017
Spine  10.6642 7.5042 0.947162
Spine1  9.03934 10.9171 -11.3254
HEad  6.88169 8.53128 -11.2967
LeftShoulder1  1.18295 -0.863736 -22.3018
LeftArm  5.37002 8.00614 -45.7704
LeftForeArm  44.4782 -0.831242 -13.9087
LeftHand  0.0160756 6.58889 4.48582
RightShoulder  3.31077 10.2047 18.0851
RightArm  68.5927 35.5754 93.5547
RightForeArm  20.6094 20.612 6.353
RightHand  0.26624 -6.8347 -22.0241
LeftUpLeg  -35.0928 -2.34014 -7.4357
LeftLeg  48.1884 -1.20088 -0.960679
LeftFoot  -18.4461 -0.254111 -5.86941
LeftToes  1.09107e-011 -1.16422e-010 2.98337e-011
114
root  52.5582 35.7445 -28.3654 134.097 74.3311 126.882
RightUpLeg  -43.227 -8.03711 -9.69865
RightLeg  87.8455 0.304479 6.35216
RightFoot  -12.7195 -0.00226339 6.98883
RightToes  -1.33073e-015 0 -3.6325e-017
Spine  10.0481 5.28176 -0.490927
Spine1  8.53837 7.90025 -9.04795
HEad  8.37547 12.5626 -12.7055
LeftShoulder1  1.57392 -2.68803 -20.0574
LeftArm  5.66284 8.66934 -48.1788
LeftForeArm  44.6538 -4.55496 -12.9748
LeftHand  0.0565695 6.94448 6.41387
RightShoulder  3.21638 9.13713 19.5362
RightArm  20.6214 35.4988 86.597
RightForeArm  61.1532 3.11966 14.9585
RightHand  0.452941 -7.76923 -22.4103
LeftUpLeg  -29.0813 -1.66104 -5.53871
LeftLeg  44.5783 -1.37992 -1.00421
LeftFoot  -19.8799 -0.383557 -6.72752
LeftToes  1.09107e-011 -1.16422e-010 2.98337e-011
115
root  54.3976 36.5283 -28.1635 137.845 75.6554 130.985
RightUpLeg  -45.9273 -8.09764 -11.2766
RightLeg  77.8544 1.10612 4.67715
RightFoot  -13.421 0.0397079 7.20212
RightToes  -1.33073e-015 0 -3.6325e-017
Spine  9.53399 3.33243 -1.40943
Spine1  7.76719 5.07475 -5.98108
HEad  8.86689 15.9633 -14.168
LeftShoulder1  1.79751 -4.0295 -18.1723
LeftArm  8.95163 9.55002 -49.9414
LeftForeArm  37.9172 -10.1783 -11.1764
LeftHand  0.0762172 6.70482 8.9301
RightShoulder  3.02743 7.87664 20.8461
RightArm  -0.122231 33.6882 78.4046
RightForeArm  71.3729 -2.40131 11.3871
RightHand  0.558266 -8.2682 -22.7195
LeftUpLeg  -23.257 -1.51467 -2.94941
LeftLeg  39.762 -1.83866 -1.21919
LeftFoot  -19.8255 -0.49047 -8.20199
LeftToes  1.09107e-011 -1.16422e-010 2.98337e-011
